<svg xmlns="http://www.w3.org/2000/svg" xmlns:xlink="http://www.w3.org/1999/xlink" width="500" zoomAndPan="magnify" viewBox="0 0 375 374.999991" height="500" preserveAspectRatio="xMidYMid meet" version="1.0"><defs><clipPath id="id1"><path d="M 76.441406 25.074219 L 298.441406 25.074219 L 298.441406 349.824219 L 76.441406 349.824219 Z M 76.441406 25.074219 " clip-rule="nonzero"/></clipPath></defs><g clip-path="url(#id1)"><path fill="#008037" d="M 240.878906 292.089844 L 164.691406 292.089844 L 133.964844 325.90625 L 133.964844 185.152344 L 240.878906 185.152344 Z M 240.878906 25.210938 L 240.878906 127.59375 L 76.421875 127.59375 L 76.421875 349.648438 L 298.421875 349.648438 L 298.421875 25.210938 L 240.878906 25.210938 " fill-opacity="1" fill-rule="nonzero"/></g><path fill="#008037" d="M 187.421875 243.148438 C 192.257812 243.148438 196.183594 239.230469 196.183594 234.386719 C 196.183594 229.546875 192.257812 225.628906 187.421875 225.628906 C 182.585938 225.628906 178.664062 229.546875 178.664062 234.386719 C 178.664062 239.230469 182.585938 243.148438 187.421875 243.148438 " fill-opacity="1" fill-rule="nonzero"/><path fill="#008037" d="M 216.390625 243.148438 C 221.226562 243.148438 225.148438 239.230469 225.148438 234.386719 C 225.148438 229.546875 221.226562 225.628906 216.390625 225.628906 C 211.554688 225.628906 207.628906 229.546875 207.628906 234.386719 C 207.628906 239.230469 211.554688 243.148438 216.390625 243.148438 " fill-opacity="1" fill-rule="nonzero"/><path fill="#008037" d="M 158.453125 243.148438 C 163.289062 243.148438 167.210938 239.230469 167.210938 234.386719 C 167.210938 229.546875 163.289062 225.628906 158.453125 225.628906 C 153.617188 225.628906 149.695312 229.546875 149.695312 234.386719 C 149.695312 239.230469 153.617188 243.148438 158.453125 243.148438 " fill-opacity="1" fill-rule="nonzero"/></svg>